User Type,Username,Date,Text
[V],neon,2010-08-31T22:13Z,"http://www.imdb.com/title/tt0970926/

Plot
A man finally finds faith in himself after the rest of world puts its faith in him; the sole being on earth who can save mankind from its own destruction - The Chosen One

Genre:Comedy
Language:English
IMDb:http://www.imdb.com/title/tt0970926/
Source Video:RelizLab.V1
Source Audio:QCF

General
Complete name :The Chosen One 2010 DVDScr XviD Feel-Free
Format : AVI
Format/Info : Audio Video Interleave
File size : 1.09 GiB
Duration : 1h 40mn
Overall bit rate : 1 553 Kbps
Writing library : VirtualDubMod build 2550/release
Video #0
Codec ID : XVID
Codec ID/Hint : XviD
Duration : 1h 40mn
Bit rate : 1 225 Kbps
Width : 652 pixels
Height : 352 pixels
Display aspect ratio : 1.852
Frame rate : 23.976 fps
Resolution : 24 bits
Colorimetry : 4:2:0
Scan type : Progressive
Bits/(Pixel*Frame) : 0.223
Stream size : 884 MiB (79%)
Writing library : XviD 1.2.1 (UTC 2008-12-04)
Audio #1
ID : 1
Format : MPEG Audio
Format version : Version 1
Format profile : Layer 3
Codec ID : 55
Codec ID/Hint : MP3
Duration : 1h 40mn
Bit rate mode : Constant
Bit rate : 320 Kbps
Channel(s) : 2 channels
Sampling rate : 44.1 KHz
Resolution : 16 bits
Stream size : 230 MiB (21%)
Alignment : Split accross interleaves
Interleave, duration : 42 ms (1.00 video frame)
Interleave, preload duration : 500 ms
Writing library : LAME3.98.2

http://www.starshare.ro/bitbucket/The%20Chosen%20One%202010%20DVDScr%20XviD%20Feel-Free.avi_thumbs_%5B2010.08.31_22.51.56%5D.jpg"
